<svg width="16" height="16" viewBox="0 0 16 16" xmlns="http://www.w3.org/2000/svg" role="graphics-symbol" aria-labelledby="arrow-right-icon-title-id" aria-hidden="false" class="css-pfo72i e1bpwjla1"><title id="arrow-right-icon-title-id">arrow-right icon</title><path fill="currentColor" d="M1.9877 7.23745H12.1877L8.4877 3.53745C8.1877 3.23745 8.1877 2.78745 8.4877 2.48745C8.7877 2.18745 9.2377 2.18745 9.5377 2.48745L14.5377 7.48745C14.8377 7.78745 14.8377 8.23745 14.5377 8.53745L9.5377 13.5375C9.3877 13.6875 9.1877 13.7375 8.9877 13.7375C8.7877 13.7375 8.5877 13.6875 8.4377 13.5375C8.13769 13.2375 8.13769 12.7875 8.4377 12.4875L12.1377 8.78745H1.9877C1.5877 8.78745 1.2377 8.43745 1.2377 8.03745C1.2377 7.63745 1.5877 7.23745 1.9877 7.23745Z"></path></svg>